<svg version="1" xmlns="http://www.w3.org/2000/svg" width="744" height="744" viewBox="0 0 558.000000 558.000000"><path d="M338.5 13.6C301 21.8 274 55.1 273.9 93.2c0 5.9.5 13.5 1.1 17 2.5 13.4 10.7 29.6 20.7 40.4 9.8 10.7 25.8 20.1 40.8 24 9.6 2.5 29.4 2.5 39 0 15-3.9 31-13.3 40.8-24 9.8-10.6 18.2-26.9 20.6-40 1.8-9.8 1.4-27.2-.9-36.2-4.2-16.7-15.1-33.8-28.3-44.4-7.2-5.8-21.6-13.2-30.2-15.5-8.7-2.4-30.1-2.9-39-.9zM162.5 22.9c-7.6 2.2-12.5 4.8-20 10.4C127 45 118.1 66.6 120.8 85.7c.5 3.5.8 6.3.7 6.3-.2 0-2.8-1.1-6-2.5C106.8 85.6 98.6 84 87 84c-12.8 0-20.9 1.8-31.5 7-19.3 9.3-34.2 27.7-38.9 48-2 8.4-2 25.6 0 34 4.7 20.3 19.6 38.7 38.9 48 10.6 5.2 18.7 7 31.5 7s20.9-1.8 31.5-7c19.3-9.3 34.2-27.7 38.9-48 2-8.2 2-25.6.2-33.5-.8-3.3-1.3-6.1-1.1-6.3.1-.2 2.9.5 6.1 1.4 7.3 2.1 21.9 2.4 29.4.5 20.6-5.1 37.7-22.2 42.5-42.3 1.9-8.1 1.9-20.8 0-28.3-5.1-20.1-21.9-36.9-42-42-7.9-2-22.4-1.8-30 .4zM490.6 82.1c-12.8 3-26.9 15.1-33.3 28.5-3.3 7-3.7 8.6-4.1 18.4-.7 17 3.4 27.8 14.7 39 10.7 10.5 21.4 15 36.1 15 14.7 0 25.5-4.5 36-15s15-21.3 15-36-4.5-25.4-15-36.1c-10.5-10.6-21.2-15-36.4-14.8-5 .1-10.8.5-13 1zM231.3 160.4c-10.4 3.4-19.4 11.4-24.1 21.4-2.4 5-2.7 6.9-2.7 16.2 0 9.9.2 11 3.2 17.1 3.9 8 11.1 15 19.1 18.7 5 2.4 6.9 2.7 16.2 2.7 9.9 0 11-.2 17.1-3.2 8-3.9 15-11.1 18.7-19.1 2.4-5 2.7-6.9 2.7-16.2 0-9.3-.3-11.2-2.7-16.2-3.7-8-10.7-15.2-18.6-19-5.6-2.8-7.7-3.3-15.6-3.5-5.7-.2-10.7.2-13.3 1.1zM409 229.8v15.7l-4.3-.3c-8.1-.7-13.5 6.7-10.3 14.1 1.8 4.4 6.6 7.1 11.3 6.4l3.3-.6v18.5c0 16.9.1 18.4 1.8 18.4.9 0 24.5-5.1 52.5-11.4l50.7-11.3v177.2l-93.1 29c-51.2 15.9-93.7 29.1-94.5 29.3-1.2.3-1.4-14.5-1.4-97l-.1-97.3-54.7-31.7c-30.1-17.4-55.5-32-56.5-32.3-1.6-.7-1.7 3.9-1.7 84.7v85.4l55.2 48.5c30.3 26.6 55.9 48.8 56.8 49.2 1.1.6 32.7-8.8 98.6-29.3 53.3-16.6 97.7-30.6 98.7-31.1 1.6-.9 1.7-6.4 1.7-93.8v-92.9l-55.8-31.6c-30.7-17.4-56.4-31.6-57-31.6-.9 0-1.2 4.2-1.2 15.8z"/><path d="M336.9 216.4c-11.8 3.2-21.6 12.9-24.3 24.1-1.4 5.7-.7 15.1 1.5 20.9 2.9 7.8 10.7 15.6 18.6 18.6 7.7 2.9 20.6 2.5 27.1-.9 10.4-5.4 17.4-15.5 18.8-27.3.5-4.3.2-7.3-1.6-12.9-1.9-6.3-3-8.1-8.4-13.5-5.3-5.2-7.3-6.5-13-8.3-7.7-2.4-12-2.5-18.7-.7zM135 246.7c-3.1 1.7-6.5 4.5-8.3 7.1-2.7 3.7-3.2 5.4-3.5 11.6-.3 5.8 0 8.1 1.6 11.2 3.9 7.7 10 12.1 18 13.1 6.5.7 12.6-1.2 17.3-5.4 6.3-5.7 8.2-10.2 7.7-18.9-.3-6.2-.8-7.9-3.5-11.6-4.2-5.8-11.8-9.8-18.8-9.8-3.8 0-6.7.8-10.5 2.7z"/></svg>